<svg xmlns="http://www.w3.org/2000/svg" xmlns:xlink="http://www.w3.org/1999/xlink" width="500" zoomAndPan="magnify" viewBox="0 0 375 374.999991" height="500" preserveAspectRatio="xMidYMid meet" version="1.0"><defs><g/><clipPath id="6fe45e79dd"><path d="M 19.316406 45.414062 L 356.621094 45.414062 L 356.621094 342.148438 L 19.316406 342.148438 Z M 19.316406 45.414062 " clip-rule="nonzero"/></clipPath><clipPath id="68684c807a"><path d="M 37.316406 45.414062 L 338.59375 45.414062 C 343.367188 45.414062 347.945312 47.308594 351.320312 50.683594 C 354.699219 54.058594 356.59375 58.640625 356.59375 63.414062 L 356.59375 324.148438 C 356.59375 328.925781 354.699219 333.503906 351.320312 336.878906 C 347.945312 340.253906 343.367188 342.148438 338.59375 342.148438 L 37.316406 342.148438 C 32.542969 342.148438 27.964844 340.253906 24.585938 336.878906 C 21.210938 333.503906 19.316406 328.925781 19.316406 324.148438 L 19.316406 63.414062 C 19.316406 58.640625 21.210938 54.058594 24.585938 50.683594 C 27.964844 47.308594 32.542969 45.414062 37.316406 45.414062 Z M 37.316406 45.414062 " clip-rule="nonzero"/></clipPath><clipPath id="16c8654aa1"><path d="M 0.316406 0.414062 L 337.621094 0.414062 L 337.621094 297.148438 L 0.316406 297.148438 Z M 0.316406 0.414062 " clip-rule="nonzero"/></clipPath><clipPath id="f0691807e8"><path d="M 18.316406 0.414062 L 319.59375 0.414062 C 324.367188 0.414062 328.945312 2.308594 332.320312 5.683594 C 335.699219 9.058594 337.59375 13.640625 337.59375 18.414062 L 337.59375 279.148438 C 337.59375 283.925781 335.699219 288.503906 332.320312 291.878906 C 328.945312 295.253906 324.367188 297.148438 319.59375 297.148438 L 18.316406 297.148438 C 13.542969 297.148438 8.964844 295.253906 5.585938 291.878906 C 2.210938 288.503906 0.316406 283.925781 0.316406 279.148438 L 0.316406 18.414062 C 0.316406 13.640625 2.210938 9.058594 5.585938 5.683594 C 8.964844 2.308594 13.542969 0.414062 18.316406 0.414062 Z M 18.316406 0.414062 " clip-rule="nonzero"/></clipPath><clipPath id="ac677698e6"><rect x="0" width="338" y="0" height="298"/></clipPath><clipPath id="c51c8773ce"><path d="M 0 43 L 219 43 L 219 315 L 0 315 Z M 0 43 " clip-rule="nonzero"/></clipPath><clipPath id="18c6bcc278"><path d="M 99.59375 38.179688 L 223.160156 161.746094 L 68.304688 316.605469 L -55.265625 193.039062 Z M 99.59375 38.179688 " clip-rule="nonzero"/></clipPath><clipPath id="f3d46f9105"><path d="M 47 27 L 147 27 L 147 263 L 47 263 Z M 47 27 " clip-rule="nonzero"/></clipPath><clipPath id="8bcdb8a17b"><path d="M 99.59375 -4.820312 L 223.160156 118.746094 L 68.304688 273.605469 L -55.265625 150.039062 Z M 99.59375 -4.820312 " clip-rule="nonzero"/></clipPath><clipPath id="550c0ef32b"><path d="M 223.359375 118.945312 L 99.792969 -4.621094 L -55.066406 150.238281 L 68.5 273.804688 Z M 223.359375 118.945312 " clip-rule="nonzero"/></clipPath><clipPath id="0d767e0e33"><rect x="0" width="219" y="0" height="272"/></clipPath><clipPath id="2594577cb9"><rect x="0" width="188" y="0" height="208"/></clipPath><clipPath id="e39a3f1b93"><path d="M 106.828125 153.402344 L 148.101562 153.402344 L 148.101562 169.53125 L 106.828125 169.53125 Z M 106.828125 153.402344 " clip-rule="nonzero"/></clipPath><clipPath id="ca2fd04ff4"><path d="M 0.828125 0.402344 L 42.101562 0.402344 L 42.101562 16.53125 L 0.828125 16.53125 Z M 0.828125 0.402344 " clip-rule="nonzero"/></clipPath><clipPath id="4b7c2ed27e"><rect x="0" width="43" y="0" height="17"/></clipPath><clipPath id="6112c0059c"><path d="M 45.328125 113.070312 L 86.660156 113.070312 L 86.660156 129.199219 L 45.328125 129.199219 Z M 45.328125 113.070312 " clip-rule="nonzero"/></clipPath><clipPath id="3544a21e9a"><path d="M 53.390625 113.070312 L 78.535156 113.070312 C 80.675781 113.070312 82.726562 113.921875 84.238281 115.433594 C 85.75 116.945312 86.601562 118.996094 86.601562 121.136719 C 86.601562 123.273438 85.75 125.324219 84.238281 126.839844 C 82.726562 128.351562 80.675781 129.199219 78.535156 129.199219 L 53.390625 129.199219 C 51.253906 129.199219 49.203125 128.351562 47.691406 126.839844 C 46.175781 125.324219 45.328125 123.273438 45.328125 121.136719 C 45.328125 118.996094 46.175781 116.945312 47.691406 115.433594 C 49.203125 113.921875 51.253906 113.070312 53.390625 113.070312 Z M 53.390625 113.070312 " clip-rule="nonzero"/></clipPath><clipPath id="3b28c83334"><path d="M 0.328125 0.0703125 L 41.640625 0.0703125 L 41.640625 16.199219 L 0.328125 16.199219 Z M 0.328125 0.0703125 " clip-rule="nonzero"/></clipPath><clipPath id="3d605c7be1"><path d="M 8.390625 0.0703125 L 33.535156 0.0703125 C 35.675781 0.0703125 37.726562 0.921875 39.238281 2.433594 C 40.75 3.945312 41.601562 5.996094 41.601562 8.136719 C 41.601562 10.273438 40.75 12.324219 39.238281 13.839844 C 37.726562 15.351562 35.675781 16.199219 33.535156 16.199219 L 8.390625 16.199219 C 6.253906 16.199219 4.203125 15.351562 2.691406 13.839844 C 1.175781 12.324219 0.328125 10.273438 0.328125 8.136719 C 0.328125 5.996094 1.175781 3.945312 2.691406 2.433594 C 4.203125 0.921875 6.253906 0.0703125 8.390625 0.0703125 Z M 8.390625 0.0703125 " clip-rule="nonzero"/></clipPath><clipPath id="4a281e766e"><rect x="0" width="42" y="0" height="17"/></clipPath><clipPath id="efc95b18da"><path d="M 57.539062 153.402344 L 74.390625 153.402344 L 74.390625 170.253906 L 57.539062 170.253906 Z M 57.539062 153.402344 " clip-rule="nonzero"/></clipPath><clipPath id="120d4f9380"><path d="M 65.964844 153.402344 C 61.3125 153.402344 57.539062 157.175781 57.539062 161.828125 C 57.539062 166.480469 61.3125 170.253906 65.964844 170.253906 C 70.617188 170.253906 74.390625 166.480469 74.390625 161.828125 C 74.390625 157.175781 70.617188 153.402344 65.964844 153.402344 Z M 65.964844 153.402344 " clip-rule="nonzero"/></clipPath><clipPath id="883d26debd"><path d="M 0.539062 0.402344 L 17.390625 0.402344 L 17.390625 17.253906 L 0.539062 17.253906 Z M 0.539062 0.402344 " clip-rule="nonzero"/></clipPath><clipPath id="a30cca4ab2"><path d="M 8.964844 0.402344 C 4.3125 0.402344 0.539062 4.175781 0.539062 8.828125 C 0.539062 13.480469 4.3125 17.253906 8.964844 17.253906 C 13.617188 17.253906 17.390625 13.480469 17.390625 8.828125 C 17.390625 4.175781 13.617188 0.402344 8.964844 0.402344 Z M 8.964844 0.402344 " clip-rule="nonzero"/></clipPath><clipPath id="677d2f40bd"><rect x="0" width="18" y="0" height="18"/></clipPath><clipPath id="baf9555db2"><rect x="0" width="178" y="0" height="122"/></clipPath></defs><g clip-path="url(#6fe45e79dd)"><g clip-path="url(#68684c807a)"><g transform="matrix(1, 0, 0, 1, 19, 45)"><g clip-path="url(#ac677698e6)"><g clip-path="url(#16c8654aa1)"><g clip-path="url(#f0691807e8)"><path fill="#7f5d45" d="M 0.316406 0.414062 L 337.621094 0.414062 L 337.621094 297.148438 L 0.316406 297.148438 Z M 0.316406 0.414062 " fill-opacity="1" fill-rule="nonzero"/></g></g></g></g></g></g><g clip-path="url(#c51c8773ce)"><g clip-path="url(#18c6bcc278)"><g transform="matrix(1, 0, 0, 1, 0, 43)"><g clip-path="url(#0d767e0e33)"><g clip-path="url(#f3d46f9105)"><g clip-path="url(#8bcdb8a17b)"><g clip-path="url(#550c0ef32b)"><path fill="#ffffff" d="M 58.503906 60.582031 L 105.511719 60.582031 C 110.070312 60.582031 113.765625 64.277344 113.765625 68.832031 L 113.765625 72.960938 C 113.765625 77.515625 117.457031 81.210938 122.015625 81.210938 L 138.519531 81.210938 C 143.074219 81.210938 146.769531 77.515625 146.769531 72.957031 L 146.769531 60.582031 C 146.769531 42.355469 124.601562 27.578125 97.261719 27.578125 C 76.59375 27.578125 58.882812 36.023438 51.46875 48.019531 C 48.078125 53.503906 52.058594 60.582031 58.503906 60.582031 Z M 146.769531 163.71875 L 146.769531 180.222656 C 146.769531 189.335938 139.378906 196.722656 130.265625 196.722656 C 121.152344 196.722656 113.765625 189.335938 113.765625 180.222656 L 113.765625 163.71875 C 113.765625 159.164062 117.457031 155.46875 122.015625 155.46875 L 138.519531 155.46875 C 143.074219 155.46875 146.769531 159.164062 146.769531 163.71875 Z M 47.757812 110.085938 L 47.757812 241.71875 C 47.757812 253.230469 57.183594 262.539062 68.734375 262.34375 C 80.046875 262.15625 89.011719 252.691406 89.011719 241.382812 L 89.011719 167.84375 C 89.011719 154.175781 100.09375 143.09375 113.765625 143.09375 L 130.265625 143.09375 C 139.378906 143.09375 146.769531 135.703125 146.769531 126.589844 L 146.769531 110.085938 C 146.769531 100.972656 139.378906 93.585938 130.265625 93.585938 L 64.257812 93.585938 C 55.144531 93.585938 47.757812 100.972656 47.757812 110.085938 Z M 89.011719 118.339844 C 89.011719 113.78125 92.707031 110.089844 97.261719 110.089844 L 122.011719 110.089844 C 126.570312 110.089844 130.261719 113.78125 130.261719 118.339844 C 130.261719 122.894531 126.570312 126.589844 122.011719 126.589844 L 97.261719 126.589844 C 92.707031 126.589844 89.011719 122.894531 89.011719 118.339844 Z M 89.011719 118.339844 " fill-opacity="1" fill-rule="nonzero"/></g></g></g></g></g></g></g><g transform="matrix(1, 0, 0, 1, 151, 72)"><g clip-path="url(#2594577cb9)"><g fill="#ffffff" fill-opacity="1"><g transform="translate(0.850751, 167.622445)"><g><path d="M 12.734375 -112.1875 L 12.734375 -137.859375 L 50.578125 -137.859375 L 50.578125 -112.1875 Z M 12.734375 0 L 12.734375 -100.390625 L 50.578125 -100.390625 L 50.578125 0 Z M 12.734375 0 "/></g></g></g><g fill="#ffffff" fill-opacity="1"><g transform="translate(59.412493, 167.622445)"><g><path d="M 125.875 0 L 81.765625 0 L 62.75 -31.5625 L 61.984375 -31.5625 L 42.78125 0 L 0.765625 0 L 39.359375 -53.234375 L 4.5625 -100.390625 L 49.0625 -100.390625 L 65.03125 -73.78125 L 65.78125 -73.78125 L 81.765625 -100.390625 L 123.59375 -100.390625 L 88.21875 -52.28125 Z M 125.875 0 "/></g></g></g></g></g><g clip-path="url(#e39a3f1b93)"><g transform="matrix(1, 0, 0, 1, 106, 153)"><g clip-path="url(#4b7c2ed27e)"><g clip-path="url(#ca2fd04ff4)"><path fill="#7f5d45" d="M 0.828125 0.402344 L 42.097656 0.402344 L 42.097656 16.53125 L 0.828125 16.53125 Z M 0.828125 0.402344 " fill-opacity="1" fill-rule="nonzero"/></g></g></g></g><g clip-path="url(#6112c0059c)"><g clip-path="url(#3544a21e9a)"><g transform="matrix(1, 0, 0, 1, 45, 113)"><g clip-path="url(#4a281e766e)"><g clip-path="url(#3b28c83334)"><g clip-path="url(#3d605c7be1)"><path fill="#ffffff" d="M 0.328125 0.0703125 L 41.597656 0.0703125 L 41.597656 16.199219 L 0.328125 16.199219 Z M 0.328125 0.0703125 " fill-opacity="1" fill-rule="nonzero"/></g></g></g></g></g></g><g clip-path="url(#efc95b18da)"><g clip-path="url(#120d4f9380)"><g transform="matrix(1, 0, 0, 1, 57, 153)"><g clip-path="url(#677d2f40bd)"><g clip-path="url(#883d26debd)"><g clip-path="url(#a30cca4ab2)"><path fill="#e7730f" d="M 0.539062 0.402344 L 17.390625 0.402344 L 17.390625 17.253906 L 0.539062 17.253906 Z M 0.539062 0.402344 " fill-opacity="1" fill-rule="nonzero"/></g></g></g></g></g></g><g transform="matrix(1, 0, 0, 1, 151, 214)"><g clip-path="url(#baf9555db2)"><g fill="#ffde59" fill-opacity="1"><g transform="translate(0.895136, 97.658332)"><g><path d="M 84.609375 -60.03125 C 91.273438 -60.03125 96.273438 -58.117188 99.609375 -54.296875 C 102.941406 -50.484375 104.609375 -45.054688 104.609375 -38.015625 L 104.609375 0 L 82.484375 0 L 82.484375 -35.359375 C 82.484375 -37.867188 81.875 -39.882812 80.65625 -41.40625 C 79.4375 -42.925781 77.710938 -43.6875 75.484375 -43.6875 C 72.890625 -43.6875 70.773438 -42.796875 69.140625 -41.015625 C 67.515625 -39.242188 66.703125 -37.0625 66.703125 -34.46875 L 66.703125 0 L 44.578125 0 L 44.578125 -35.359375 C 44.578125 -37.867188 43.960938 -39.882812 42.734375 -41.40625 C 41.515625 -42.925781 39.796875 -43.6875 37.578125 -43.6875 C 34.984375 -43.6875 32.867188 -42.796875 31.234375 -41.015625 C 29.609375 -39.242188 28.796875 -37.0625 28.796875 -34.46875 L 28.796875 0 L 6.671875 0 L 6.671875 -58.703125 L 24.796875 -58.703125 L 26.234375 -49.921875 C 28.460938 -53.023438 31.410156 -55.484375 35.078125 -57.296875 C 38.742188 -59.117188 42.613281 -60.03125 46.6875 -60.03125 C 55.507812 -60.03125 61.441406 -56.660156 64.484375 -49.921875 C 66.773438 -53.023438 69.71875 -55.484375 73.3125 -57.296875 C 76.90625 -59.117188 80.671875 -60.03125 84.609375 -60.03125 Z M 84.609375 -60.03125 "/></g></g></g><g fill="#ffde59" fill-opacity="1"><g transform="translate(106.393282, 97.658332)"><g><path d="M 37.015625 -60.03125 C 47.765625 -60.03125 55.972656 -57.507812 61.640625 -52.46875 C 67.316406 -47.425781 70.15625 -39.71875 70.15625 -29.34375 L 70.15625 -25.5625 L 26.125 -25.5625 C 26.125 -21.34375 27.066406 -18.15625 28.953125 -16 C 30.847656 -13.851562 33.832031 -12.78125 37.90625 -12.78125 C 41.613281 -12.78125 44.335938 -13.554688 46.078125 -15.109375 C 47.816406 -16.671875 48.6875 -18.75 48.6875 -21.34375 L 70.15625 -21.34375 C 70.15625 -14.226562 67.445312 -8.671875 62.03125 -4.671875 C 56.625 -0.671875 48.734375 1.328125 38.359375 1.328125 C 27.460938 1.328125 19.007812 -1.207031 13 -6.28125 C 7 -11.351562 4 -19.039062 4 -29.34375 C 4 -39.425781 6.925781 -47.0625 12.78125 -52.25 C 18.632812 -57.4375 26.710938 -60.03125 37.015625 -60.03125 Z M 37.90625 -45.90625 C 30.9375 -45.90625 27.046875 -42.609375 26.234375 -36.015625 L 47.796875 -36.015625 C 47.796875 -39.054688 46.925781 -41.460938 45.1875 -43.234375 C 43.445312 -45.015625 41.019531 -45.90625 37.90625 -45.90625 Z M 37.90625 -45.90625 "/></g></g></g></g></g></svg>